<svg height="512" viewBox="0 0 512 512" width="512" xmlns="http://www.w3.org/2000/svg"><g id="Flat"><path d="m488 424-72-56h-80l-16 56z" fill="#d4bba3"/><path d="m352 368h64l-72 56z" fill="#ecd9c2"/><path d="m416 368 72 56-72-360-96 304z" fill="#e1cab4"/><path d="m136 64-72 360h280l72-360z" fill="#ffefd6"/><path d="m168 48v16h-16v-16a16 16 0 0 0 -32 0v16a16.02119 16.02119 0 0 0 16 16v16a32.036 32.036 0 0 1 -32-32v-16a31.99708 31.99708 0 0 1 61.6001-12.14 31.63492 31.63492 0 0 1 2.3999 12.14z" fill="#68737f"/><path d="m165.6001 35.86a15.96713 15.96713 0 0 0 -5.6001 12.14v16h-8v-16a15.96713 15.96713 0 0 0 -5.6001-12.14 32.162 32.162 0 0 1 9.6001-12.83 32.162 32.162 0 0 1 9.6001 12.83z" fill="#4f5761"/><path d="m216 48v16h-16v-16a16 16 0 0 0 -32 0v16a16.02119 16.02119 0 0 0 16 16v16a32.036 32.036 0 0 1 -32-32v-16a31.99708 31.99708 0 0 1 61.6001-12.14 31.63492 31.63492 0 0 1 2.3999 12.14z" fill="#68737f"/><path d="m213.6001 35.86a15.96713 15.96713 0 0 0 -5.6001 12.14v16h-8v-16a15.96713 15.96713 0 0 0 -5.6001-12.14 32.162 32.162 0 0 1 9.6001-12.83 32.162 32.162 0 0 1 9.6001 12.83z" fill="#4f5761"/><path d="m264 48v16h-16v-16a16 16 0 0 0 -32 0v16a16.02119 16.02119 0 0 0 16 16v16a32.036 32.036 0 0 1 -32-32v-16a31.99708 31.99708 0 0 1 61.6001-12.14 31.63492 31.63492 0 0 1 2.3999 12.14z" fill="#68737f"/><path d="m261.6001 35.86a15.968 15.968 0 0 0 -5.6001 12.14v16h-8v-16a15.96713 15.96713 0 0 0 -5.6001-12.14 32.162 32.162 0 0 1 9.6001-12.83 32.15983 32.15983 0 0 1 9.6001 12.83z" fill="#4f5761"/><path d="m312 48v16h-16v-16a16 16 0 0 0 -32 0v16a16.02135 16.02135 0 0 0 16 16v16a32.036 32.036 0 0 1 -32-32v-16a31.99708 31.99708 0 0 1 61.6001-12.14 31.63492 31.63492 0 0 1 2.3999 12.14z" fill="#68737f"/><path d="m309.6001 35.86a15.968 15.968 0 0 0 -5.6001 12.14v16h-8v-16a15.968 15.968 0 0 0 -5.6001-12.14 32.15983 32.15983 0 0 1 9.6001-12.83 32.15983 32.15983 0 0 1 9.6001 12.83z" fill="#4f5761"/><path d="m360 48v16h-16v-16a16 16 0 0 0 -32 0v16a16.02135 16.02135 0 0 0 16 16v16a32.036 32.036 0 0 1 -32-32v-16a31.99708 31.99708 0 0 1 61.6001-12.14 31.63492 31.63492 0 0 1 2.3999 12.14z" fill="#68737f"/><path d="m357.6001 35.86a15.968 15.968 0 0 0 -5.6001 12.14v16h-8v-16a15.968 15.968 0 0 0 -5.6001-12.14 32.15983 32.15983 0 0 1 9.6001-12.83 32.15983 32.15983 0 0 1 9.6001 12.83z" fill="#4f5761"/><path d="m376 96a32.03635 32.03635 0 0 1 -32-32v-16a32 32 0 0 1 64 0v16h-16v-16a16 16 0 0 0 -32 0v16a16.01833 16.01833 0 0 0 16 16z" fill="#68737f"/><g fill="#ba8b5d"><path d="m248.58984 320h-44.37984a8.00053 8.00053 0 0 1 -7.84473-9.56885l8-40a8.00041 8.00041 0 0 1 7.84473-6.43115h44.37988a8.00051 8.00051 0 0 1 7.84473 9.56885l-8 40a8.00041 8.00041 0 0 1 -7.84477 6.43115zm-34.62109-16h28.0625l4.7998-24h-28.0625z"/><path d="m340.73047 248h-44.39063a8.00051 8.00051 0 0 1 -7.84472-9.56885l8-40a8.0004 8.0004 0 0 1 7.84472-6.43115h44.39063a8.00053 8.00053 0 0 1 7.84473 9.56885l-8 40a8.00041 8.00041 0 0 1 -7.84473 6.43115zm-34.63184-16h28.07325l4.7998-24h-28.07324z"/><path d="m277.39062 176h-44.38085a8.00051 8.00051 0 0 1 -7.84473-9.56885l8-40a8.00041 8.00041 0 0 1 7.84473-6.43115h44.38085a8.00051 8.00051 0 0 1 7.84473 9.56885l-8 40a8.00041 8.00041 0 0 1 -7.84473 6.43115zm-34.62207-16h28.06345l4.79981-24h-28.06345z"/><path d="m355.12988 176h-44.38965a8.00051 8.00051 0 0 1 -7.84472-9.56885l8-40a8.0004 8.0004 0 0 1 7.84472-6.43115h44.38965a8.00051 8.00051 0 0 1 7.84473 9.56885l-8 40a8.00041 8.00041 0 0 1 -7.84473 6.43115zm-34.63088-16h28.07227l4.7998-24h-28.07224z"/><path d="m262.99023 248h-44.38085a8.00051 8.00051 0 0 1 -7.84473-9.56885l8-40a8.00041 8.00041 0 0 1 7.84473-6.43115h44.38085a8.00051 8.00051 0 0 1 7.84473 9.56885l-8 40a8.00041 8.00041 0 0 1 -7.84473 6.43115zm-34.62207-16h28.06348l4.79981-24h-28.06345z"/><path d="m185.66016 248h-44.39063a8.00053 8.00053 0 0 1 -7.84473-9.56885l8-40a8.00041 8.00041 0 0 1 7.84473-6.43115h44.39063a8.00051 8.00051 0 0 1 7.84472 9.56885l-8 40a8.0004 8.0004 0 0 1 -7.84472 6.43115zm-34.63184-16h28.07324l4.79981-24h-28.07325z"/><path d="m171.25977 320h-44.38965a8.00051 8.00051 0 0 1 -7.84473-9.56885l8-40a8.00041 8.00041 0 0 1 7.84473-6.43115h44.38965a8.00051 8.00051 0 0 1 7.84472 9.56885l-8 40a8.0004 8.0004 0 0 1 -7.84472 6.43115zm-34.63086-16h28.07226l4.79981-24h-28.07227z"/></g><rect fill="#2676b1" height="128" rx="64" width="192" x="24" y="360"/><rect fill="#4384c3" height="128" rx="64" width="160" x="56" y="360"/><circle cx="152" cy="424" fill="#529ddf" r="64"/><path d="m152 408h72a0 0 0 0 1 0 0v32a0 0 0 0 1 0 0h-72a16 16 0 0 1 -16-16 16 16 0 0 1 16-16z" fill="#d4e4f0"/><rect fill="#2676b1" height="128" rx="64" width="192" x="200" y="360"/><rect fill="#4384c3" height="128" rx="64" width="160" x="232" y="360"/><circle cx="328" cy="424" fill="#529ddf" r="64"/><rect fill="#d4e4f0" height="32" rx="16" width="48" x="312" y="408"/></g></svg>