<?xml version="1.0"?>
<svg xmlns="http://www.w3.org/2000/svg" viewBox="0 0 512 512" width="512" height="512"><g id="Flat"><path d="M432,216l-72,56a126.02176,126.02176,0,0,1,4.15991,81.41992L360,368a71.43825,71.43825,0,0,1-.88,47.68994L344,456H328V368l-8-40V216l1.14-2.85986A30.66155,30.66155,0,0,1,368,200l36.79-23,16.88989-10.55-14.60986-9.74L400,152,368,80l-16-8L336,32l24-8,14.9,30.8999L384,72l40,40,29.07007,34.89014L464,160Z" style="fill:#68737f"/><polygon points="384 72 368 80 352 72 336 32 360 24 374.9 54.9 384 72" style="fill:#d4e4f0"/><path d="M320,272H300.37a120.04445,120.04445,0,0,1-53.74-12.68994A61.0564,61.0564,0,0,1,216,224H136L72,176,40,144l16-16,32,16v16l31.03,10.33984A43.21632,43.21632,0,0,1,144,192l35.83008-5.97L192,184h64l16-8,24,40h24l4.49,22.46A52.12389,52.12389,0,0,1,320,272Z" style="fill:#fdc5ca"/><path d="M241.88,190.12012l-2.51,10.0498a12.78594,12.78594,0,0,1-12.48,9.71,12.63242,12.63242,0,0,1-9.01-3.75976l-16-16-16,8L179.83008,186.03,192,184h46.82007Z" style="fill:#fc979e"/><path d="M320,272H300.37a120.04445,120.04445,0,0,1-53.74-12.68994A61.0564,61.0564,0,0,1,216,224l8-24V184h32l16-8,24,40h24l4.49,22.46A52.12389,52.12389,0,0,1,320,272Z" style="fill:#e04446"/><path d="M383.88,77.40991,368,88l-64,80-32,8-6.64,19.90991a5.97217,5.97217,0,0,1-11.01.79L240,168a110.63985,110.63985,0,0,1,37.01-24.3999L296,136a88.981,88.981,0,0,1,27.42993-40.19995L352,72l10.59009-15.87988A7.9967,7.9967,0,0,1,374.9,54.8999l10.2,10.2002A7.99657,7.99657,0,0,1,383.88,77.40991Z" style="fill:#fdc5ca"/><path d="M252.29,185.16992l3.3,13.2002A5.91588,5.91588,0,0,1,254.35,196.7L240,168a109.39654,109.39654,0,0,1,17.51-14.23A39.93166,39.93166,0,0,0,252.29,185.16992Z" style="fill:#fc979e"/><path d="M328,288h-8V272h24v0A16,16,0,0,1,328,288Z" style="fill:#4f5761"/><path d="M328,456l-40.84459,20.42229A12.94427,12.94427,0,0,0,280,488h72l-8-32Z" style="fill:#d4e4f0"/><path d="M184,136v16l-8,16,8,8,8,16,16-8,16,16h0A12.81142,12.81142,0,0,0,245.488,194.0482L248,184l-8-16-24-40Z" style="fill:#fdc5ca"/><path d="M184,136l32,8,24,24h0a17.88853,17.88853,0,0,0,8-24l-9.36657-18.73315A24,24,0,0,0,217.16718,112H208a24,24,0,0,0-24,24Z" style="fill:#ba8b5d"/><path d="M242.96887,104.68742l0,0a14.93341,14.93341,0,0,1,21.08885,4.74217L272.674,123.79a14.93339,14.93339,0,0,1-4.52173,20.10851l-1.077.718a14.9334,14.9334,0,0,1-21.6404-5.74692l-7.53922-15.07843A14.9334,14.9334,0,0,1,242.96887,104.68742Z" style="fill:#9f764a"/><path d="M432,160l-10.32007,6.45-14.60986-9.74,2.88-1.79982A16.00147,16.00147,0,0,1,432,160Z" style="fill:#4f5761"/><path d="M464,160l-32,56-72,56a15.9886,15.9886,0,0,1,2.81006-22.44995l56.86987-44.24,33.39014-58.41992Z" style="fill:#4f5761"/></g></svg>
