<?xml version="1.0" encoding="UTF-8" standalone="no"?>
<svg
   xmlns:dc="http://purl.org/dc/elements/1.1/"
   xmlns:cc="http://creativecommons.org/ns#"
   xmlns:rdf="http://www.w3.org/1999/02/22-rdf-syntax-ns#"
   xmlns:svg="http://www.w3.org/2000/svg"
   xmlns="http://www.w3.org/2000/svg"
   xmlns:sodipodi="http://sodipodi.sourceforge.net/DTD/sodipodi-0.dtd"
   xmlns:inkscape="http://www.inkscape.org/namespaces/inkscape"
   height="512"
   viewBox="0 0 512 512"
   width="512"
   version="1.1"
   id="svg31"
   sodipodi:docname="juntos.svg"
   inkscape:version="0.92.4 5da689c313, 2019-01-14">
  <metadata
     id="metadata37">
    <rdf:RDF>
      <cc:Work
         rdf:about="">
        <dc:format>image/svg+xml</dc:format>
        <dc:type
           rdf:resource="http://purl.org/dc/dcmitype/StillImage" />
        <dc:title></dc:title>
      </cc:Work>
    </rdf:RDF>
  </metadata>
  <defs
     id="defs35" />
  <sodipodi:namedview
     pagecolor="#ffffff"
     bordercolor="#666666"
     borderopacity="1"
     objecttolerance="10"
     gridtolerance="10"
     guidetolerance="10"
     inkscape:pageopacity="0"
     inkscape:pageshadow="2"
     inkscape:window-width="1920"
     inkscape:window-height="990"
     id="namedview33"
     showgrid="false"
     inkscape:zoom="0.921875"
     inkscape:cx="185.95164"
     inkscape:cy="216.80732"
     inkscape:window-x="0"
     inkscape:window-y="28"
     inkscape:window-maximized="1"
     inkscape:current-layer="Flat" />
  <g
     id="Flat">
    <path
       d="m 361.91035,144.51547 45.96209,32.83006 -32.83006,32.83006 z"
       id="path2"
       inkscape:connector-curvature="0"
       style="fill:#fdc5ca;stroke-width:0.82075161" />
    <path
       d="m 361.91035,144.51547 -19.69804,19.69803 -6.56601,-32.83006 h -13.13202 l -6.56601,-13.13202 h -6.56602 l 6.56602,-19.698046 a 19.666578,19.666578 0 0 1 5.76988,-13.928147 19.369573,19.369573 0 0 1 2.59358,-2.175118 19.582311,19.582311 0 0 1 11.33457,-3.594773 h 4.31715 a 19.700319,19.700319 0 0 1 19.1071,14.921205 31.625905,31.625905 0 0 1 -2.38838,21.799229 l -1.33783,2.67565 z"
       id="path4"
       inkscape:connector-curvature="0"
       style="fill:#fdc5ca;stroke-width:0.82075161" />
    <path
       d="m 360.01442,101.45063 a 31.591286,31.591286 0 0 1 -3.33225,14.12514 l -1.33783,2.67565 A 89.061393,89.061393 0 0 1 325.05861,83.943999 l -0.74688,-1.493828 a 19.582311,19.582311 0 0 1 11.33457,-3.594835 h 4.31715 a 19.700319,19.700319 0 0 1 19.1071,14.921205 31.635097,31.635097 0 0 1 0.94387,7.674089 z"
       id="path6"
       inkscape:connector-curvature="0"
       style="fill:#ba8b5d;stroke-width:0.82075161" />
    <path
       d="m 366.55286,82.619211 a 14.797437,14.797437 0 0 1 18.09899,11.453593 59.322281,59.322281 0 0 0 16.22311,30.313136 l 6.99748,6.9975 -26.56495,-5.31299 a 32.297198,32.297198 0 0 1 -11.58123,-4.7971 l -2.14206,-1.42804 a 27.486888,27.486888 0 0 1 -12.23986,-22.870449 14.797453,14.797453 0 0 1 11.20852,-14.35565 z"
       id="path8"
       inkscape:connector-curvature="0"
       style="fill:#9f764a;stroke-width:0.82075161" />
    <path
       d="m 473.53257,400.58995 -13.13203,6.56601 -59.09412,-52.52809 -23.94131,-44.46826 -10.87496,-20.19875 -11.75317,5.8767 -38.78871,19.39423 19.69803,19.69804 6.56601,45.96209 -13.13202,6.56601 -45.96208,-72.22614 a 225.76527,225.76527 0 0 1 49.11376,-57.33759 l 9.98034,-8.32253 v -19.69804 h 39.39608 l 1.7482,0.69772 a 40.207658,40.207658 0 0 1 24.51585,45.26437 219.40673,219.40673 0 0 1 18.89371,55.05607 l 0.80433,4.03804 a 69.160737,69.160737 0 0 1 41.40691,47.43123 z"
       id="path10"
       inkscape:connector-curvature="0"
       style="fill:#68737f;stroke-width:0.82075161" />
    <path
       d="m 366.49015,289.96086 -11.75317,5.8767 -4.72707,-8.77437 a 13.134758,13.134758 0 0 1 5.33443,-17.79348 z"
       id="path12"
       inkscape:connector-curvature="0"
       style="fill:#4f5761;stroke-width:0.82075161" />
    <path
       d="m 499.79662,413.72198 -26.26405,45.96209 h -32.83006 a 21.278075,21.278075 0 0 1 11.74494,-19.00874 l 1.38708,-0.6893 2.6264,-13.13203 3.93961,-19.69804 13.13203,-6.56601 14.50267,7.2473 z"
       id="path14"
       inkscape:connector-curvature="0"
       style="fill:#529ddf;stroke-width:0.82075161" />
    <path
       d="m 473.53257,439.98603 h -19.69804 l 2.6264,-13.13203 h 3.93961 a 13.128348,13.128348 0 0 1 13.13203,13.13203 z"
       id="path16"
       inkscape:connector-curvature="0"
       style="fill:#4384c3;stroke-width:0.82075161" />
    <path
       d="m 368.47636,407.15596 -59.09411,32.83007 a 25.343167,25.343167 0 0 1 1.57585,-25.34471 l 18.12219,-27.18339 13.13202,-6.56601 z"
       id="path18"
       inkscape:connector-curvature="0"
       style="fill:#529ddf;stroke-width:0.82075161" />
    <path
       d="m 335.6463,197.04357 -11.35679,-8.51759 a 19.698037,19.698037 0 0 1 -4.57093,-26.68493 l 8.9785,-13.46772 a 23.408565,23.408565 0 0 1 19.47711,-10.42388 23.408565,23.408565 0 0 1 23.17329,20.0981 l 10.26091,71.82608 h -39.39608 z"
       id="path20"
       inkscape:connector-curvature="0"
       style="fill:#e04446;stroke-width:0.82075161" />
    <path
       d="m 307.60923,165.31743 23.8492,-14.46751 a 14.218848,14.218848 0 0 1 18.15375,2.88397 14.218848,14.218848 0 0 1 -1.50616,20.05203 l -2.82672,2.43173 a 14.218946,14.218946 0 0 1 -2.89118,1.92718 l -46.82066,23.51571 -12.8462,-14.93276 -20.01928,-43.4073 -4.28206,-4.97759 -7.8686,-19.21485 24.19243,-12.15066 12.15067,24.19244 -4.97759,4.28206 25.6924,29.86555 -0.69552,9.25967"
       id="path22"
       inkscape:connector-curvature="0"
       style="fill:#fdc5ca;stroke-width:0.82075161" />
    <path
       d="m 499.79662,413.72198 -26.26405,45.96209 h -32.83006 a 21.204806,21.204806 0 0 1 4.54695,-13.13203 h 20.65832 l 3.75084,-6.56601 2.87263,-5.02309 15.50399,-27.12569 z"
       id="path24"
       inkscape:connector-curvature="0"
       style="fill:#d4e4f0;stroke-width:0.82075161" />
    <path
       d="m 473.53257,439.98603 h -3.87395 l 2.87263,-5.02309 a 12.940191,12.940191 0 0 1 1.00132,5.02309 z"
       id="path26"
       inkscape:connector-curvature="0"
       style="fill:#c1d7e6;stroke-width:0.82075161" />
    <path
       d="m 368.47636,407.15596 -59.09411,32.83007 a 25.175364,25.175364 0 0 1 -2.56074,-13.59991 l 51.99461,-28.89039 z"
       id="path28"
       inkscape:connector-curvature="0"
       style="fill:#d4e4f0;stroke-width:0.82075161" />
    <path
       inkscape:connector-curvature="0"
       style="fill:#fdd7a2;fill-opacity:1;stroke-width:0.82075161"
       d="m 150.92793,148.96702 -45.96209,32.83006 32.83007,32.83006 z"
       id="path2-3" />
    <path
       inkscape:connector-curvature="0"
       style="fill:#fdd7a2;fill-opacity:1;stroke-width:0.82075161"
       d="m 150.92793,148.96702 19.69804,19.69803 6.56602,-32.83007 h 13.13203 l 6.56601,-13.13203 h 6.56601 l -6.56601,-19.69803 a 19.666578,19.666578 0 0 0 -5.76988,-13.928159 19.369573,19.369573 0 0 0 -2.59358,-2.175107 19.582311,19.582311 0 0 0 -11.33458,-3.594773 h -4.31716 a 19.700319,19.700319 0 0 0 -19.1071,14.921204 31.625905,31.625905 0 0 0 2.38839,21.799225 l 1.33783,2.67564 z"
       id="path4-6" />
    <path
       inkscape:connector-curvature="0"
       style="fill:#362a1a;fill-opacity:1;stroke-width:0.82075161"
       d="m 152.82387,105.90217 a 31.591286,31.591286 0 0 0 3.33225,14.12514 l 1.33783,2.67564 a 89.061393,89.061393 0 0 0 30.28574,-34.307406 l 0.74688,-1.493829 a 19.582311,19.582311 0 0 0 -11.33458,-3.594834 h -4.31716 a 19.700319,19.700319 0 0 0 -19.1071,14.921204 31.635097,31.635097 0 0 0 -0.94386,7.674085 z"
       id="path6-7" />
    <path
       inkscape:connector-curvature="0"
       style="fill:#362a1a;fill-opacity:1;stroke-width:0.82075161"
       d="m 146.28541,87.070756 a 14.797437,14.797437 0 0 0 -18.09897,11.453592 59.322281,59.322281 0 0 1 -16.22311,30.313142 l -6.99749,6.99749 26.56496,-5.31299 a 32.297198,32.297198 0 0 0 11.58123,-4.7971 l 2.14204,-1.42803 a 27.486888,27.486888 0 0 0 12.23988,-22.87045 14.797453,14.797453 0 0 0 -11.20854,-14.355654 z"
       id="path8-5" />
    <path
       inkscape:connector-curvature="0"
       style="fill:#68737f;stroke-width:0.82075161"
       d="m 39.305725,405.0415 13.132025,6.56601 59.09411,-52.52809 23.94132,-44.46827 10.87495,-20.19875 11.75317,5.87671 38.78873,19.39422 -19.69804,19.69804 -6.56602,45.96209 13.13203,6.56602 45.96209,-72.22615 a 225.76527,225.76527 0 0 0 -49.11378,-57.33759 l -9.98034,-8.32253 v -19.69804 h -39.39606 l -1.74821,0.69773 a 40.207658,40.207658 0 0 0 -24.51586,45.26436 219.40673,219.40673 0 0 0 -18.893692,55.05608 l -0.804336,4.03803 A 69.160737,69.160737 0 0 0 43.860896,386.8126 Z"
       id="path10-3" />
    <path
       inkscape:connector-curvature="0"
       style="fill:#4f5761;stroke-width:0.82075161"
       d="m 146.34813,294.4124 11.75317,5.87671 4.72708,-8.77439 a 13.134758,13.134758 0 0 0 -5.33443,-17.79347 z"
       id="path12-5" />
    <path
       inkscape:connector-curvature="0"
       style="fill:#529ddf;stroke-width:0.82075161"
       d="m 13.041675,418.17352 26.26405,45.96209 H 72.135779 A 21.278075,21.278075 0 0 0 60.390833,445.12687 l -1.387071,-0.6893 -2.626413,-13.13202 -3.939599,-19.69804 -13.132025,-6.56601 -14.50268,7.2473 z"
       id="path14-6" />
    <path
       inkscape:connector-curvature="0"
       style="fill:#4384c3;stroke-width:0.82075161"
       d="M 39.305725,444.43757 H 59.003762 L 56.377349,431.30555 H 52.43775 a 13.128348,13.128348 0 0 0 -13.132025,13.13202 z"
       id="path16-2" />
    <path
       inkscape:connector-curvature="0"
       style="fill:#529ddf;stroke-width:0.82075161"
       d="m 144.36192,411.60751 59.09412,32.83006 a 25.343167,25.343167 0 0 0 -1.57584,-25.34471 l -18.1222,-27.18338 -13.13203,-6.56602 z"
       id="path18-9" />
    <path
       inkscape:connector-curvature="0"
       style="fill:#fbd317;fill-opacity:1;stroke-width:0.82075161"
       d="m 177.19199,201.49511 11.35679,-8.51758 a 19.698037,19.698037 0 0 0 4.57094,-26.68495 l -8.97851,-13.46771 a 23.408565,23.408565 0 0 0 -19.47712,-10.42388 23.408565,23.408565 0 0 0 -23.17329,20.0981 l -10.26089,71.82608 h 39.39606 z"
       id="path20-1" />
    <path
       d="m 205.22907,169.76898 -23.84921,-14.46753 a 14.218848,14.218848 0 0 0 -18.15375,2.88398 14.218848,14.218848 0 0 0 1.50615,20.05202 l 2.82673,2.43174 a 14.218946,14.218946 0 0 0 2.89118,1.92718 l 46.82066,23.51572 12.84621,-14.93277 20.01927,-43.40729 4.28207,-4.97759 7.8686,-19.21485 -24.19243,-12.15067 -12.15067,24.19244 4.97759,4.28206 -25.6924,29.86556 0.69552,9.25966"
       id="path22-2"
       inkscape:connector-curvature="0"
       style="fill:#fdd7a2;fill-opacity:1;stroke-width:0.82075161" />
    <path
       inkscape:connector-curvature="0"
       style="fill:#d444f0;fill-opacity:1;stroke-width:0.82075161"
       d="m 13.041675,418.17352 26.26405,45.96209 H 72.135779 A 21.204806,21.204806 0 0 0 67.588815,451.00359 H 46.930498 l -3.750834,-6.56602 -2.87263,-5.0231 -15.503989,-27.12567 z"
       id="path24-7" />
    <path
       inkscape:connector-curvature="0"
       style="fill:#c1d7e6;stroke-width:0.82075161"
       d="m 39.305725,444.43757 h 3.873939 l -2.87263,-5.0231 a 12.940191,12.940191 0 0 0 -1.001309,5.0231 z"
       id="path26-0" />
    <path
       inkscape:connector-curvature="0"
       style="fill:#d444f0;fill-opacity:1;stroke-width:0.82075161"
       d="m 144.36192,411.60751 59.09412,32.83006 a 25.175364,25.175364 0 0 0 2.56075,-13.5999 l -51.99463,-28.89041 z"
       id="path28-9" />
  </g>
</svg>
